<svg width="8" height="4" viewBox="0 0 8 4" fill="none" xmlns="http://www.w3.org/2000/svg">
<path d="M2.96914 2.876V3H1.92914V2.876H2.24914L1.97714 2.088H1.01314L0.861141 2.448C0.813141 2.57067 0.789141 2.66133 0.789141 2.72C0.789141 2.776 0.797141 2.816 0.813141 2.84C0.829141 2.864 0.913141 2.876 1.06514 2.876V3H0.193141V2.876C0.331807 2.87867 0.431807 2.86133 0.493141 2.824C0.557141 2.784 0.626474 2.65867 0.701141 2.448L1.56914 0.168H1.72914L2.67314 2.876H2.96914ZM1.06914 1.936H1.92114L1.52514 0.764L1.06914 1.936ZM4.41333 0.156V3H4.14533V0.156H4.41333ZM7.83727 2.488L7.89327 2.552C7.75193 2.74933 7.60127 2.884 7.44127 2.956C7.28127 3.028 7.08527 3.064 6.85327 3.064C6.51193 3.064 6.22127 2.924 5.98127 2.644C5.74127 2.35867 5.6226 2.00933 5.62527 1.596C5.6306 1.18 5.7506 0.841333 5.98527 0.58C6.21993 0.316 6.50927 0.184 6.85327 0.184C7.07193 0.184 7.2306 0.194666 7.32927 0.216C7.42793 0.234667 7.5466 0.270667 7.68527 0.324V0.952H7.56527C7.5466 0.717333 7.48393 0.548 7.37727 0.444C7.2706 0.337333 7.09993 0.289333 6.86527 0.3C6.34793 0.324 6.08927 0.765333 6.08927 1.624C6.08927 2.00267 6.15593 2.31333 6.28927 2.556C6.42793 2.796 6.60927 2.91867 6.83327 2.924C7.05727 2.92667 7.24127 2.89467 7.38527 2.828C7.52927 2.75867 7.67993 2.64533 7.83727 2.488Z" fill="white"/>
</svg>
