<svg width="81" height="27" viewBox="0 0 81 27" fill="none" xmlns="http://www.w3.org/2000/svg">
<path d="M25.2661 24.9283V26.0443H15.9061V24.9283H18.7861L16.3381 17.8363H7.66207L6.29407 21.0763C5.86207 22.1803 5.64607 22.9963 5.64607 23.5243C5.64607 24.0283 5.71807 24.3883 5.86207 24.6043C6.00607 24.8203 6.76207 24.9283 8.13007 24.9283V26.0443H0.282073V24.9283C1.53007 24.9523 2.43007 24.7963 2.98207 24.4603C3.55807 24.1003 4.18207 22.9723 4.85407 21.0763L12.6661 0.556311H14.1061L22.6021 24.9283H25.2661ZM8.16607 16.4683H15.8341L12.2701 5.92031L8.16607 16.4683ZM43.72 0.448311V26.0443H41.308V0.448311H43.72ZM79.9917 21.4363L80.4957 22.0123C79.2237 23.7883 77.8677 25.0003 76.4277 25.6483C74.9877 26.2963 73.2237 26.6203 71.1357 26.6203C68.0637 26.6203 65.4477 25.3603 63.2877 22.8403C61.1277 20.2723 60.0597 17.1283 60.0837 13.4083C60.1317 9.66431 61.2117 6.61631 63.3237 4.26431C65.4357 1.88831 68.0397 0.70031 71.1357 0.70031C73.1037 0.70031 74.5317 0.79631 75.4197 0.98831C76.3077 1.15631 77.3757 1.48031 78.6237 1.96031V7.61231H77.5437C77.3757 5.50031 76.8117 3.97631 75.8517 3.04031C74.8917 2.08031 73.3557 1.64831 71.2437 1.74431C66.5877 1.96031 64.2597 5.93231 64.2597 13.6603C64.2597 17.0683 64.8597 19.8643 66.0597 22.0483C67.3077 24.2083 68.9397 25.3123 70.9557 25.3603C72.9717 25.3843 74.6277 25.0963 75.9237 24.4963C77.2197 23.8723 78.5757 22.8523 79.9917 21.4363Z" fill="white"/>
</svg>
